# xmcd
#
# Track frame offsets:
# 150
# 11510
# 21300
# 35319
# 46676
# 56245
# 68433
# 82167
# 93745
# 104084
# 116270
# 126533
# 134683
# 148624
# 162076
# 173755
#
# Disc length: 2468 seconds
#
#
# Revision: 0
# Processed by: cddbd v1.5.2PL0 Copyright (c) Steve Scherf et al.
# Submitted via: FreeRIP 2.60 
#
DISCID=e009a210
DTITLE=Willie Nelson - Things To Remeber, CD1
DYEAR=2006
DGENRE=Native American
TTITLE0=What A Way To Live
TTITLE1=Misery Mansion
TTITLE2=Rainy Day Blues
TTITLE3=Night Life
TTITLE4=Man With The Blues
TTITLE5=The Storm Was In My Heart
TTITLE6=A Moment Isn' t Very Long
TTITLE7=Some Other Time
TTITLE8=Bllame It On The Times
TTITLE9=Schelter Of My Arms
TTITLE10=Touch Me
TTITLE11=Half A Man
TTITLE12=Will You Remember Me?
TTITLE13=Everything But You
TTITLE14=I Hope So
TTITLE15=Is There Something On Your Mind?
EXTD=
EXTT0=
EXTT1=
EXTT2=
EXTT3=
EXTT4=
EXTT5=
EXTT6=
EXTT7=
EXTT8=
EXTT9=
EXTT10=
EXTT11=
EXTT12=
EXTT13=
EXTT14=
EXTT15=
PLAYORDER=
